<svg width="22" height="27" viewBox="0 0 22 27" fill="none" xmlns="http://www.w3.org/2000/svg">
<path d="M20 21V25H4V21H2V25C2 25.5304 2.21071 26.0391 2.58579 26.4142C2.96086 26.7893 3.46957 27 4 27H20C20.5304 27 21.0391 26.7893 21.4142 26.4142C21.7893 26.0391 22 25.5304 22 25V21H20Z" fill="black"/>
<path d="M17 18L15.586 16.586L13 19.172V11H11V19.172L8.414 16.586L7 18L12 23L17 18Z" fill="black"/>
<path d="M0.944824 9.2373C0.944824 8.99023 1.02718 8.78971 1.19189 8.63574C1.36019 8.48177 1.56966 8.40479 1.82031 8.40479C2.07454 8.40479 2.28402 8.48177 2.44873 8.63574C2.61702 8.78971 2.70117 8.99023 2.70117 9.2373C2.70117 9.48079 2.61882 9.67952 2.4541 9.8335C2.28939 9.98389 2.07812 10.0591 1.82031 10.0591C1.56608 10.0591 1.35661 9.98389 1.19189 9.8335C1.02718 9.67952 0.944824 9.48079 0.944824 9.2373ZM4.16748 10V2.17969H6.90674C7.85563 2.17969 8.57536 2.3623 9.06592 2.72754C9.55648 3.08919 9.80176 3.62093 9.80176 4.32275C9.80176 4.70589 9.70329 5.04427 9.50635 5.33789C9.30941 5.62793 9.03548 5.84098 8.68457 5.97705C9.08561 6.07731 9.40072 6.27962 9.62988 6.58398C9.86263 6.88835 9.979 7.26074 9.979 7.70117C9.979 8.45312 9.7391 9.02246 9.25928 9.40918C8.77946 9.7959 8.09554 9.99284 7.20752 10H4.16748ZM5.77881 6.59473V8.70557H7.15918C7.53874 8.70557 7.83415 8.61605 8.04541 8.43701C8.26025 8.25439 8.36768 8.00374 8.36768 7.68506C8.36768 6.96891 7.99707 6.60547 7.25586 6.59473H5.77881ZM5.77881 5.45605H6.97119C7.78402 5.44173 8.19043 5.11768 8.19043 4.48389C8.19043 4.12939 8.08659 3.87516 7.87891 3.72119C7.6748 3.56364 7.35075 3.48486 6.90674 3.48486H5.77881V5.45605ZM12.9062 10H11.2949V2.17969H12.9062V10ZM14.4048 10V2.17969H17.144C18.0929 2.17969 18.8127 2.3623 19.3032 2.72754C19.7938 3.08919 20.0391 3.62093 20.0391 4.32275C20.0391 4.70589 19.9406 5.04427 19.7437 5.33789C19.5467 5.62793 19.2728 5.84098 18.9219 5.97705C19.3229 6.07731 19.638 6.27962 19.8672 6.58398C20.0999 6.88835 20.2163 7.26074 20.2163 7.70117C20.2163 8.45312 19.9764 9.02246 19.4966 9.40918C19.0168 9.7959 18.3328 9.99284 17.4448 10H14.4048ZM16.0161 6.59473V8.70557H17.3965C17.776 8.70557 18.0715 8.61605 18.2827 8.43701C18.4976 8.25439 18.605 8.00374 18.605 7.68506C18.605 6.96891 18.2344 6.60547 17.4932 6.59473H16.0161ZM16.0161 5.45605H17.2085C18.0213 5.44173 18.4277 5.11768 18.4277 4.48389C18.4277 4.12939 18.3239 3.87516 18.1162 3.72119C17.9121 3.56364 17.5881 3.48486 17.144 3.48486H16.0161V5.45605Z" fill="black"/>
</svg>
