<svg width="34" height="34" viewBox="0 0 34 34" fill="none" xmlns="http://www.w3.org/2000/svg">
<path d="M17 19.8333C18.5648 19.8333 19.8333 18.5648 19.8333 17C19.8333 15.4352 18.5648 14.1667 17 14.1667C15.4352 14.1667 14.1667 15.4352 14.1667 17C14.1667 18.5648 15.4352 19.8333 17 19.8333Z" fill="black"/>
<path d="M26.9167 19.8333C28.4815 19.8333 29.75 18.5648 29.75 17C29.75 15.4352 28.4815 14.1667 26.9167 14.1667C25.3519 14.1667 24.0833 15.4352 24.0833 17C24.0833 18.5648 25.3519 19.8333 26.9167 19.8333Z" fill="black"/>
<path d="M7.08333 19.8333C8.64814 19.8333 9.91667 18.5648 9.91667 17C9.91667 15.4352 8.64814 14.1667 7.08333 14.1667C5.51853 14.1667 4.25 15.4352 4.25 17C4.25 18.5648 5.51853 19.8333 7.08333 19.8333Z" fill="black"/>
<path d="M4.1416 24.8464L6.69824 31.2272L9.25488 24.8464H10.5923V32.6667H9.56104V29.6213L9.65771 26.3342L7.09033 32.6667H6.30078L3.73877 26.3503L3.84082 29.6213V32.6667H2.80957V24.8464H4.1416ZM18.4287 29.009C18.4287 29.7752 18.2998 30.4448 18.042 31.0177C17.7842 31.5871 17.4189 32.0221 16.9463 32.3229C16.4736 32.6237 15.9222 32.7741 15.292 32.7741C14.6761 32.7741 14.13 32.6237 13.6538 32.3229C13.1776 32.0186 12.807 31.5871 12.542 31.0285C12.2806 30.4663 12.1463 29.8164 12.1392 29.0788V28.5148C12.1392 27.7629 12.2699 27.0986 12.5312 26.5221C12.7926 25.9456 13.1615 25.5052 13.6377 25.2009C14.1175 24.8929 14.6654 24.7389 15.2812 24.7389C15.9079 24.7389 16.4593 24.8911 16.9355 25.1955C17.4154 25.4963 17.7842 25.9349 18.042 26.5114C18.2998 27.0843 18.4287 27.7521 18.4287 28.5148V29.009ZM17.4028 28.5041C17.4028 27.5767 17.2166 26.8659 16.8442 26.3717C16.4718 25.874 15.9508 25.6252 15.2812 25.6252C14.6296 25.6252 14.1157 25.874 13.7397 26.3717C13.3674 26.8659 13.1758 27.5534 13.165 28.4342V29.009C13.165 29.9077 13.353 30.6149 13.729 31.1305C14.1086 31.6426 14.6296 31.8986 15.292 31.8986C15.958 31.8986 16.4736 31.6569 16.8389 31.1735C17.2041 30.6865 17.3921 29.9901 17.4028 29.0842V28.5041ZM22.8438 29.5031H21.0068V32.6667H19.9702V24.8464H22.5591C23.4399 24.8464 24.1167 25.0469 24.5894 25.4479C25.0656 25.849 25.3037 26.4326 25.3037 27.1989C25.3037 27.6859 25.1712 28.1102 24.9062 28.4718C24.6449 28.8335 24.2796 29.1038 23.8105 29.2829L25.6475 32.6022V32.6667H24.541L22.8438 29.5031ZM21.0068 28.6598H22.5913C23.1034 28.6598 23.5098 28.5273 23.8105 28.2624C24.1149 27.9974 24.2671 27.6429 24.2671 27.1989C24.2671 26.7155 24.1221 26.3449 23.832 26.0871C23.5456 25.8293 23.1302 25.6986 22.5859 25.695H21.0068V28.6598ZM31.1743 29.0519H27.7852V31.8234H31.7222V32.6667H26.7539V24.8464H31.6685V25.695H27.7852V28.2087H31.1743V29.0519Z" fill="black"/>
</svg>
