<svg width="36" height="36" viewBox="0 0 36 36" fill="none" xmlns="http://www.w3.org/2000/svg">
<path d="M30 3.17647H6C4.3455 3.17647 3 4.12623 3 5.29412V15.8824C3 17.0502 4.3455 18 6 18H16.5V21.1765H12V23.2941H24V21.1765H19.5V18H30C31.6545 18 33 17.0502 33 15.8824V5.29412C33 4.12623 31.6545 3.17647 30 3.17647ZM6 15.8824V5.29412H30L30.0015 15.8824H6Z" fill="black"/>
<path d="M15 13.7647L22.5 10.5882L15 7.41176V13.7647Z" fill="black"/>
<path d="M4.80664 32.3016C4.0026 32.0705 3.41667 31.7873 3.04883 31.452C2.68424 31.1135 2.50195 30.6968 2.50195 30.202C2.50195 29.6421 2.72493 29.1799 3.1709 28.8153C3.62012 28.4475 4.2028 28.2635 4.91895 28.2635C5.40723 28.2635 5.8418 28.358 6.22266 28.5468C6.60677 28.7356 6.90299 28.996 7.11133 29.328C7.32292 29.66 7.42871 30.023 7.42871 30.4169H6.48633C6.48633 29.9872 6.34961 29.6503 6.07617 29.4061C5.80273 29.1587 5.41699 29.035 4.91895 29.035C4.45671 29.035 4.09538 29.1376 3.83496 29.3427C3.5778 29.5445 3.44922 29.826 3.44922 30.1874C3.44922 30.4771 3.57129 30.7229 3.81543 30.9247C4.06283 31.1233 4.48112 31.3055 5.07031 31.4716C5.66276 31.6376 6.125 31.8215 6.45703 32.0233C6.79232 32.2219 7.03971 32.4546 7.19922 32.7216C7.36198 32.9885 7.44336 33.3026 7.44336 33.6639C7.44336 34.2401 7.21875 34.7024 6.76953 35.0507C6.32031 35.3957 5.71973 35.5682 4.96777 35.5682C4.47949 35.5682 4.02376 35.4755 3.60059 35.2899C3.17741 35.1011 2.85026 34.844 2.61914 34.5184C2.39128 34.1929 2.27734 33.8234 2.27734 33.41H3.21973C3.21973 33.8397 3.3776 34.1799 3.69336 34.4305C4.01237 34.6779 4.43717 34.8016 4.96777 34.8016C5.46257 34.8016 5.8418 34.7007 6.10547 34.4989C6.36914 34.2971 6.50098 34.022 6.50098 33.6737C6.50098 33.3254 6.37891 33.0568 6.13477 32.868C5.89062 32.676 5.44792 32.4872 4.80664 32.3016ZM9.5918 34.704H12.9609V35.4706H8.64941V28.3612H9.5918V34.704ZM15.0361 35.4706H14.0986V28.3612H15.0361V35.4706ZM16.7549 35.4706V28.3612H18.7617C19.3802 28.3612 19.9271 28.4979 20.4023 28.7714C20.8776 29.0448 21.2438 29.4338 21.501 29.9384C21.7614 30.4429 21.8932 31.0223 21.8965 31.6766V32.1307C21.8965 32.8013 21.7663 33.3889 21.5059 33.8934C21.2487 34.398 20.8792 34.7854 20.3975 35.0555C19.9189 35.3257 19.3607 35.4641 18.7227 35.4706H16.7549ZM17.6924 29.1327V34.704H18.6787C19.4014 34.704 19.9629 34.4794 20.3633 34.0302C20.7669 33.5809 20.9688 32.9413 20.9688 32.1112V31.6962C20.9688 30.8889 20.7783 30.2622 20.3975 29.8163C20.0199 29.3671 19.4827 29.1392 18.7861 29.1327H17.6924ZM27.3359 32.1844H24.2549V34.704H27.834V35.4706H23.3174V28.3612H27.7852V29.1327H24.2549V31.4178H27.3359V32.1844ZM31.0957 32.3016C30.2917 32.0705 29.7057 31.7873 29.3379 31.452C28.9733 31.1135 28.791 30.6968 28.791 30.202C28.791 29.6421 29.014 29.1799 29.46 28.8153C29.9092 28.4475 30.4919 28.2635 31.208 28.2635C31.6963 28.2635 32.1309 28.358 32.5117 28.5468C32.8958 28.7356 33.1921 28.996 33.4004 29.328C33.612 29.66 33.7178 30.023 33.7178 30.4169H32.7754C32.7754 29.9872 32.6387 29.6503 32.3652 29.4061C32.0918 29.1587 31.7061 29.035 31.208 29.035C30.7458 29.035 30.3844 29.1376 30.124 29.3427C29.8669 29.5445 29.7383 29.826 29.7383 30.1874C29.7383 30.4771 29.8604 30.7229 30.1045 30.9247C30.3519 31.1233 30.7702 31.3055 31.3594 31.4716C31.9518 31.6376 32.4141 31.8215 32.7461 32.0233C33.0814 32.2219 33.3288 32.4546 33.4883 32.7216C33.651 32.9885 33.7324 33.3026 33.7324 33.6639C33.7324 34.2401 33.5078 34.7024 33.0586 35.0507C32.6094 35.3957 32.0088 35.5682 31.2568 35.5682C30.7686 35.5682 30.3128 35.4755 29.8896 35.2899C29.4665 35.1011 29.1393 34.844 28.9082 34.5184C28.6803 34.1929 28.5664 33.8234 28.5664 33.41H29.5088C29.5088 33.8397 29.6667 34.1799 29.9824 34.4305C30.3014 34.6779 30.7262 34.8016 31.2568 34.8016C31.7516 34.8016 32.1309 34.7007 32.3945 34.4989C32.6582 34.2971 32.79 34.022 32.79 33.6737C32.79 33.3254 32.668 33.0568 32.4238 32.868C32.1797 32.676 31.737 32.4872 31.0957 32.3016Z" fill="black"/>
</svg>
