<svg width="43" height="49" viewBox="0 0 43 49" fill="none" xmlns="http://www.w3.org/2000/svg">
<path d="M30.4583 3.0625V6.125H35.8459C36.8277 6.125 37.625 6.80641 37.625 7.64553V32.167C37.6245 32.5701 37.4369 32.9566 37.1034 33.2417C36.7698 33.5268 36.3176 33.6871 35.8459 33.6875H7.15413C6.68242 33.6871 6.23017 33.5268 5.89662 33.2417C5.56307 32.9566 5.37547 32.5701 5.375 32.167V7.64553C5.375 6.80641 6.17229 6.125 7.15413 6.125H12.5417V3.0625H30.4583ZM12.5417 9.1875H8.95833V30.625H34.0417V9.1875H30.4583V12.25H12.5417V9.1875ZM16.125 24.5V27.5625H12.5417V24.5H16.125ZM16.125 19.9062V22.9688H12.5417V19.9062H16.125ZM16.125 15.3125V18.375H12.5417V15.3125H16.125ZM26.875 6.125H16.125V9.1875H26.875V6.125Z" fill="black"/>
<path d="M4.61328 43.2642C3.72884 43.0099 3.08431 42.6984 2.67969 42.3296C2.27865 41.9572 2.07812 41.4989 2.07812 40.9546C2.07812 40.3387 2.3234 39.8302 2.81396 39.4292C3.30811 39.0246 3.94906 38.8223 4.73682 38.8223C5.27393 38.8223 5.75195 38.9261 6.1709 39.1338C6.59342 39.3415 6.91927 39.6279 7.14844 39.9932C7.38118 40.3584 7.49756 40.7576 7.49756 41.1909H6.46094C6.46094 40.7183 6.31055 40.3477 6.00977 40.0791C5.70898 39.807 5.28467 39.6709 4.73682 39.6709C4.22835 39.6709 3.83089 39.7837 3.54443 40.0093C3.26156 40.2313 3.12012 40.541 3.12012 40.9385C3.12012 41.2572 3.25439 41.5275 3.52295 41.7495C3.79508 41.9679 4.25521 42.1685 4.90332 42.3511C5.55501 42.5337 6.06348 42.736 6.42871 42.958C6.79753 43.1764 7.06966 43.4325 7.24512 43.7261C7.42415 44.0197 7.51367 44.3652 7.51367 44.7627C7.51367 45.3965 7.2666 45.9049 6.77246 46.2881C6.27832 46.6676 5.61768 46.8574 4.79053 46.8574C4.25342 46.8574 3.75212 46.7554 3.28662 46.5513C2.82113 46.3436 2.46126 46.0607 2.20703 45.7026C1.95638 45.3446 1.83105 44.9382 1.83105 44.4834H2.86768C2.86768 44.9561 3.04134 45.3302 3.38867 45.606C3.73958 45.8781 4.20687 46.0142 4.79053 46.0142C5.3348 46.0142 5.75195 45.9032 6.04199 45.6812C6.33203 45.4591 6.47705 45.1566 6.47705 44.7734C6.47705 44.3903 6.34277 44.0949 6.07422 43.8872C5.80566 43.6759 5.31868 43.4683 4.61328 43.2642ZM14.3457 38.9297V44.2471C14.3421 44.9847 14.1094 45.5881 13.6475 46.0571C13.1891 46.5262 12.5661 46.7894 11.7783 46.8467L11.5044 46.8574C10.6486 46.8574 9.96647 46.6265 9.45801 46.1646C8.94954 45.7026 8.69173 45.0671 8.68457 44.2578V38.9297H9.70508V44.2256C9.70508 44.7913 9.86084 45.2318 10.1724 45.5469C10.4839 45.8584 10.9279 46.0142 11.5044 46.0142C12.0881 46.0142 12.5339 45.8584 12.8418 45.5469C13.1533 45.2354 13.3091 44.7967 13.3091 44.231V38.9297H14.3457ZM18.8413 43.5864H17.0044V46.75H15.9678V38.9297H18.5566C19.4375 38.9297 20.1143 39.1302 20.5869 39.5312C21.0632 39.9323 21.3013 40.516 21.3013 41.2822C21.3013 41.7692 21.1688 42.1935 20.9038 42.5552C20.6424 42.9168 20.2772 43.1872 19.8081 43.3662L21.645 46.6855V46.75H20.5386L18.8413 43.5864ZM17.0044 42.7432H18.5889C19.1009 42.7432 19.5073 42.6107 19.8081 42.3457C20.1125 42.0807 20.2646 41.7262 20.2646 41.2822C20.2646 40.7988 20.1196 40.4282 19.8296 40.1704C19.5431 39.9126 19.1278 39.7819 18.5835 39.7783H17.0044V42.7432ZM25.2329 45.3804L27.4673 38.9297H28.5952L25.6948 46.75H24.7817L21.8867 38.9297H23.0093L25.2329 45.3804ZM34.0684 43.1353H30.6792V45.9067H34.6162V46.75H29.6479V38.9297H34.5625V39.7783H30.6792V42.292H34.0684V43.1353ZM38.2847 42.856L40.3257 38.9297H41.4966L38.8003 43.8335V46.75H37.769V43.8335L35.0728 38.9297H36.2544L38.2847 42.856Z" fill="black"/>
</svg>
