<svg width="37" height="41" viewBox="0 0 37 41" fill="none" xmlns="http://www.w3.org/2000/svg">
<g clip-path="url(#clip0)">
<path d="M7.5 0H1.5C0.631 0 0 0.537021 0 1.2766V25.9574C0 26.697 0.631 27.234 1.5 27.234H35.5C36.369 27.234 37 26.697 37 25.9574V1.2766C37 0.537021 36.369 0 35.5 0H7.5ZM1 25.9574V1.2766C1 1.01021 1.187 0.851064 1.5 0.851064H7V26.383H1.5C1.187 26.383 1 26.2238 1 25.9574ZM8 26.383V0.851064H29V26.383H8ZM36 1.2766V25.9574C36 26.2238 35.813 26.383 35.5 26.383H30V0.851064H35.5C35.813 0.851064 36 1.01021 36 1.2766Z" fill="black"/>
<path d="M14.777 8.58213C14.7016 8.53943 14.6139 8.51492 14.5234 8.51117C14.433 8.50742 14.343 8.52459 14.263 8.56085C14.1835 8.59747 14.1171 8.65167 14.0708 8.71773C14.0246 8.78378 14.0001 8.85925 14 8.93617V19.1489C14 19.2259 14.0246 19.3014 14.0711 19.3675C14.1176 19.4335 14.1843 19.4875 14.264 19.5239C14.3437 19.5602 14.4336 19.5774 14.5239 19.5738C14.6142 19.5701 14.7017 19.5456 14.777 19.503L23.777 14.3966C23.8453 14.3576 23.9012 14.3049 23.9399 14.2432C23.9786 14.1814 23.9988 14.1125 23.9988 14.0426C23.9988 13.9726 23.9786 13.9037 23.9399 13.8419C23.9012 13.7802 23.8453 13.7275 23.777 13.6885L14.777 8.58213V8.58213ZM15 18.354V9.73106L22.599 14.0426L15 18.354Z" fill="black"/>
<path d="M5 6.80852H3C2.86739 6.80852 2.74021 6.85335 2.64645 6.93315C2.55268 7.01296 2.5 7.12119 2.5 7.23405C2.5 7.34691 2.55268 7.45514 2.64645 7.53495C2.74021 7.61475 2.86739 7.65958 3 7.65958H5C5.13261 7.65958 5.25979 7.61475 5.35355 7.53495C5.44732 7.45514 5.5 7.34691 5.5 7.23405C5.5 7.12119 5.44732 7.01296 5.35355 6.93315C5.25979 6.85335 5.13261 6.80852 5 6.80852Z" fill="black"/>
<path d="M3 4.25531H5C5.13261 4.25531 5.25979 4.21048 5.35355 4.13068C5.44732 4.05088 5.5 3.94264 5.5 3.82978C5.5 3.71692 5.44732 3.60869 5.35355 3.52889C5.25979 3.44908 5.13261 3.40425 5 3.40425H3C2.86739 3.40425 2.74021 3.44908 2.64645 3.52889C2.55268 3.60869 2.5 3.71692 2.5 3.82978C2.5 3.94264 2.55268 4.05088 2.64645 4.13068C2.74021 4.21048 2.86739 4.25531 3 4.25531Z" fill="black"/>
<path d="M5 10.2128H3C2.86739 10.2128 2.74021 10.2576 2.64645 10.3374C2.55268 10.4172 2.5 10.5254 2.5 10.6383C2.5 10.7512 2.55268 10.8594 2.64645 10.9392C2.74021 11.019 2.86739 11.0638 3 11.0638H5C5.13261 11.0638 5.25979 11.019 5.35355 10.9392C5.44732 10.8594 5.5 10.7512 5.5 10.6383C5.5 10.5254 5.44732 10.4172 5.35355 10.3374C5.25979 10.2576 5.13261 10.2128 5 10.2128Z" fill="black"/>
<path d="M5 13.617H3C2.86739 13.617 2.74021 13.6619 2.64645 13.7417C2.55268 13.8215 2.5 13.9297 2.5 14.0426C2.5 14.1554 2.55268 14.2636 2.64645 14.3434C2.74021 14.4233 2.86739 14.4681 3 14.4681H5C5.13261 14.4681 5.25979 14.4233 5.35355 14.3434C5.44732 14.2636 5.5 14.1554 5.5 14.0426C5.5 13.9297 5.44732 13.8215 5.35355 13.7417C5.25979 13.6619 5.13261 13.617 5 13.617V13.617Z" fill="black"/>
<path d="M5 17.0213H3C2.86739 17.0213 2.74021 17.0661 2.64645 17.1459C2.55268 17.2257 2.5 17.3339 2.5 17.4468C2.5 17.5597 2.55268 17.6679 2.64645 17.7477C2.74021 17.8275 2.86739 17.8723 3 17.8723H5C5.13261 17.8723 5.25979 17.8275 5.35355 17.7477C5.44732 17.6679 5.5 17.5597 5.5 17.4468C5.5 17.3339 5.44732 17.2257 5.35355 17.1459C5.25979 17.0661 5.13261 17.0213 5 17.0213Z" fill="black"/>
<path d="M5 20.4255H3C2.86739 20.4255 2.74021 20.4704 2.64645 20.5502C2.55268 20.63 2.5 20.7382 2.5 20.8511C2.5 20.9639 2.55268 21.0722 2.64645 21.152C2.74021 21.2318 2.86739 21.2766 3 21.2766H5C5.13261 21.2766 5.25979 21.2318 5.35355 21.152C5.44732 21.0722 5.5 20.9639 5.5 20.8511C5.5 20.7382 5.44732 20.63 5.35355 20.5502C5.25979 20.4704 5.13261 20.4255 5 20.4255Z" fill="black"/>
<path d="M5 23.8298H3C2.86739 23.8298 2.74021 23.8746 2.64645 23.9544C2.55268 24.0342 2.5 24.1425 2.5 24.2553C2.5 24.3682 2.55268 24.4764 2.64645 24.5562C2.74021 24.636 2.86739 24.6809 3 24.6809H5C5.13261 24.6809 5.25979 24.636 5.35355 24.5562C5.44732 24.4764 5.5 24.3682 5.5 24.2553C5.5 24.1425 5.44732 24.0342 5.35355 23.9544C5.25979 23.8746 5.13261 23.8298 5 23.8298Z" fill="black"/>
<path d="M32 7.65958H34C34.1326 7.65958 34.2598 7.61475 34.3536 7.53495C34.4473 7.45514 34.5 7.34691 34.5 7.23405C34.5 7.12119 34.4473 7.01296 34.3536 6.93315C34.2598 6.85335 34.1326 6.80852 34 6.80852H32C31.8674 6.80852 31.7402 6.85335 31.6464 6.93315C31.5527 7.01296 31.5 7.12119 31.5 7.23405C31.5 7.34691 31.5527 7.45514 31.6464 7.53495C31.7402 7.61475 31.8674 7.65958 32 7.65958Z" fill="black"/>
<path d="M32 4.25531H34C34.1326 4.25531 34.2598 4.21048 34.3536 4.13068C34.4473 4.05088 34.5 3.94264 34.5 3.82978C34.5 3.71692 34.4473 3.60869 34.3536 3.52889C34.2598 3.44908 34.1326 3.40425 34 3.40425H32C31.8674 3.40425 31.7402 3.44908 31.6464 3.52889C31.5527 3.60869 31.5 3.71692 31.5 3.82978C31.5 3.94264 31.5527 4.05088 31.6464 4.13068C31.7402 4.21048 31.8674 4.25531 32 4.25531Z" fill="black"/>
<path d="M32 11.0638H34C34.1326 11.0638 34.2598 11.019 34.3536 10.9392C34.4473 10.8594 34.5 10.7512 34.5 10.6383C34.5 10.5254 34.4473 10.4172 34.3536 10.3374C34.2598 10.2576 34.1326 10.2128 34 10.2128H32C31.8674 10.2128 31.7402 10.2576 31.6464 10.3374C31.5527 10.4172 31.5 10.5254 31.5 10.6383C31.5 10.7512 31.5527 10.8594 31.6464 10.9392C31.7402 11.019 31.8674 11.0638 32 11.0638Z" fill="black"/>
<path d="M32 14.4681H34C34.1326 14.4681 34.2598 14.4233 34.3536 14.3434C34.4473 14.2636 34.5 14.1554 34.5 14.0426C34.5 13.9297 34.4473 13.8215 34.3536 13.7417C34.2598 13.6619 34.1326 13.617 34 13.617H32C31.8674 13.617 31.7402 13.6619 31.6464 13.7417C31.5527 13.8215 31.5 13.9297 31.5 14.0426C31.5 14.1554 31.5527 14.2636 31.6464 14.3434C31.7402 14.4233 31.8674 14.4681 32 14.4681Z" fill="black"/>
<path d="M32 17.8723H34C34.1326 17.8723 34.2598 17.8275 34.3536 17.7477C34.4473 17.6679 34.5 17.5597 34.5 17.4468C34.5 17.3339 34.4473 17.2257 34.3536 17.1459C34.2598 17.0661 34.1326 17.0213 34 17.0213H32C31.8674 17.0213 31.7402 17.0661 31.6464 17.1459C31.5527 17.2257 31.5 17.3339 31.5 17.4468C31.5 17.5597 31.5527 17.6679 31.6464 17.7477C31.7402 17.8275 31.8674 17.8723 32 17.8723Z" fill="black"/>
<path d="M32 21.2766H34C34.1326 21.2766 34.2598 21.2318 34.3536 21.152C34.4473 21.0722 34.5 20.9639 34.5 20.8511C34.5 20.7382 34.4473 20.63 34.3536 20.5502C34.2598 20.4704 34.1326 20.4255 34 20.4255H32C31.8674 20.4255 31.7402 20.4704 31.6464 20.5502C31.5527 20.63 31.5 20.7382 31.5 20.8511C31.5 20.9639 31.5527 21.0722 31.6464 21.152C31.7402 21.2318 31.8674 21.2766 32 21.2766Z" fill="black"/>
<path d="M34 23.8298H32C31.8674 23.8298 31.7402 23.8746 31.6464 23.9544C31.5527 24.0342 31.5 24.1425 31.5 24.2553C31.5 24.3682 31.5527 24.4764 31.6464 24.5562C31.7402 24.636 31.8674 24.6809 32 24.6809H34C34.1326 24.6809 34.2598 24.636 34.3536 24.5562C34.4473 24.4764 34.5 24.3682 34.5 24.2553C34.5 24.1425 34.4473 24.0342 34.3536 23.9544C34.2598 23.8746 34.1326 23.8298 34 23.8298Z" fill="black"/>
</g>
<path d="M5.38672 38.5059L7.82422 31.4688H9.05469L5.89062 40H4.89453L1.73633 31.4688H2.96094L5.38672 38.5059ZM11.4102 40H10.2852V31.4688H11.4102V40ZM13.4727 40V31.4688H15.8809C16.623 31.4688 17.2793 31.6328 17.8496 31.9609C18.4199 32.2891 18.8594 32.7559 19.168 33.3613C19.4805 33.9668 19.6387 34.6621 19.6426 35.4473V35.9922C19.6426 36.7969 19.4863 37.502 19.1738 38.1074C18.8652 38.7129 18.4219 39.1777 17.8438 39.502C17.2695 39.8262 16.5996 39.9922 15.834 40H13.4727ZM14.5977 32.3945V39.0801H15.7812C16.6484 39.0801 17.3223 38.8105 17.8027 38.2715C18.2871 37.7324 18.5293 36.9648 18.5293 35.9688V35.4707C18.5293 34.502 18.3008 33.75 17.8438 33.2148C17.3906 32.6758 16.7461 32.4023 15.9102 32.3945H14.5977ZM26.1699 36.0566H22.4727V39.0801H26.7676V40H21.3477V31.4688H26.709V32.3945H22.4727V35.1367H26.1699V36.0566ZM34.7305 36.0098C34.7305 36.8457 34.5898 37.5762 34.3086 38.2012C34.0273 38.8223 33.6289 39.2969 33.1133 39.625C32.5977 39.9531 31.9961 40.1172 31.3086 40.1172C30.6367 40.1172 30.041 39.9531 29.5215 39.625C29.002 39.293 28.5977 38.8223 28.3086 38.2129C28.0234 37.5996 27.877 36.8906 27.8691 36.0859V35.4707C27.8691 34.6504 28.0117 33.9258 28.2969 33.2969C28.582 32.668 28.9844 32.1875 29.5039 31.8555C30.0273 31.5195 30.625 31.3516 31.2969 31.3516C31.9805 31.3516 32.582 31.5176 33.1016 31.8496C33.625 32.1777 34.0273 32.6562 34.3086 33.2852C34.5898 33.9102 34.7305 34.6387 34.7305 35.4707V36.0098ZM33.6113 35.459C33.6113 34.4473 33.4082 33.6719 33.002 33.1328C32.5957 32.5898 32.0273 32.3184 31.2969 32.3184C30.5859 32.3184 30.0254 32.5898 29.6152 33.1328C29.209 33.6719 29 34.4219 28.9883 35.3828V36.0098C28.9883 36.9902 29.1934 37.7617 29.6035 38.3242C30.0176 38.8828 30.5859 39.1621 31.3086 39.1621C32.0352 39.1621 32.5977 38.8984 32.9961 38.3711C33.3945 37.8398 33.5996 37.0801 33.6113 36.0918V35.459Z" fill="black"/>
<defs>
<clipPath id="clip0">
<rect width="37" height="27.234" fill="white"/>
</clipPath>
</defs>
</svg>
